<svg width="30" height="30" viewBox="0 0 30 30" fill="none" xmlns="http://www.w3.org/2000/svg">
    <g clip-path="url(#clip0_66_355)">
        <path d="M-0.257812 3.69324V26.3082C-0.257812 28.4429 1.422 30.1227 3.55664 30.1227H26.1716C27.2164 30.1227 28.2147 29.6228 28.8512 28.9878C29.5327 28.3063 29.9861 27.4431 29.9861 26.3082V3.69324C29.9861 1.5586 28.3063 -0.121216 26.1716 -0.121216H3.55664C2.42175 -0.121216 1.55859 0.333613 0.877078 1.01367C0.240609 1.65014 -0.257812 2.64844 -0.257812 3.69324ZM3.82983 6.68958C3.82983 5.23646 5.01122 3.96497 6.46434 3.96497C7.96252 3.96497 9.18895 5.23646 9.18895 6.68958C9.18895 8.18775 7.96252 9.36914 6.46434 9.36914C5.01122 9.36914 3.82983 8.18775 3.82983 6.68958ZM11.1405 25.3535V11.5038C11.1405 11.1855 11.4587 10.9138 11.6854 10.9138H15.5449C16.0898 10.9138 16.0898 11.5503 16.0898 11.9586C17.1797 10.8688 18.5878 10.5956 20.0409 10.5956C23.5836 10.5956 25.8534 12.2754 25.8534 15.9998V25.355C25.8534 25.6732 25.5802 25.9449 25.3085 25.9449H21.3124C20.9941 25.9449 20.7675 25.6267 20.7675 25.355V16.908C20.7675 15.4999 20.3591 14.7283 18.7694 14.7283C16.7714 14.7283 16.2715 16.0448 16.2715 17.8162V25.355C16.2715 25.6732 15.9533 25.9449 15.635 25.9449H11.684C11.4573 25.9449 11.139 25.6267 11.139 25.355L11.1405 25.3535ZM3.91992 25.3535V11.5038C3.91992 11.1855 4.23816 10.9138 4.46484 10.9138H8.41589C8.77917 10.9138 9.00586 11.1405 9.00586 11.5038V25.3535C9.00586 25.6718 8.73267 25.9435 8.41589 25.9435H4.46484C4.19166 25.9435 3.91992 25.6253 3.91992 25.3535Z" fill="#F5F9E9"/>
    </g>
    <defs>
        <clipPath id="clip0_66_355">
            <rect width="30" height="30" fill="white"/>
        </clipPath>
    </defs>
</svg>
